<svg xmlns="http://www.w3.org/2000/svg" xmlns:xlink="http://www.w3.org/1999/xlink" version="1.1" x="0px" y="0px" width="25px" height="21px" viewBox="0 0 25 21" xml:space="preserve" class="style0"><style type="text/css">.style0{enable-background:	new 0 0 25 21;}</style><style type="text/css">.st0{fill:#FFFFFF;}.st1{fill:#373737;}.st2{fill:#1F1F1F;}.st3{fill:#2ECC71;}.st4{fill-rule:evenodd;clip-rule:evenodd;fill:#1F1F1F;}.st5{fill-rule:evenodd;clip-rule:evenodd;fill:#FFFFFF;}</style><g><g><polygon class="st1" points="6.4,9 9.2,6.2 8.5,5.5 5,9 8.5,12.5 9.2,11.8"/></g><g><polygon class="st1" points="18.6,9 15.8,11.8 16.5,12.5 20,9 16.5,5.5 15.8,6.2"/></g><g><path class="st1" d="M24 1v16H1V1H24 M24 0H1C0.4 0 0 0.4 0 1v16c0 0.6 0.4 1 1 1h23c0.6 0 1-0.4 1-1V1C25 0.4 24.6 0 24 0L24 0z"/></g><g><rect x="10" y="18" class="st1" width="1" height="3"/></g><g><rect x="14" y="18" class="st1" width="1" height="3"/></g><g><rect x="6" y="20" class="st1" width="13" height="1"/></g><g><g><polygon class="st1" points="11.1,12.6 10.3,12 13.9,5.4 14.7,6"/></g></g></g></svg>