<svg xmlns="http://www.w3.org/2000/svg" xmlns:xlink="http://www.w3.org/1999/xlink" version="1.1" x="0px" y="0px" width="26px" height="16px" viewBox="0 0 26 16" xml:space="preserve" class="style0"><style type="text/css">.style0{enable-background:	new 0 0 26 16;}</style><style type="text/css">.st0{fill:#FFFFFF;}.st1{fill:#1F1F1F;}.st2{fill:#2ECC71;}.st3{fill-rule:evenodd;clip-rule:evenodd;fill:#1F1F1F;}.st4{fill-rule:evenodd;clip-rule:evenodd;fill:#FFFFFF;}</style><g><g><polygon class="st0" points="10,6 8,6 8,4 7,4 7,6 5,6 5,7 7,7 7,9 8,9 8,7 10,7"/></g><g><path class="st0" d="M18.5 5C19.3 5 20 5.7 20 6.5S19.3 8 18.5 8C17.7 8 17 7.3 17 6.5S17.7 5 18.5 5 M18.5 4 C17.1 4 16 5.1 16 6.5S17.1 9 18.5 9C19.9 9 21 7.9 21 6.5S19.9 4 18.5 4L18.5 4z"/></g><g><path class="st0" d="M19 1c3.9 0 6 9.7 6 11c0 2-0.3 3-1 3c-0.6 0-1.9-1.3-2.8-2.2C19.8 11.4 18.4 10 17 10h-4H9 c-1.4 0-2.8 1.4-4.2 2.8C3.9 13.7 2.6 15 2 15c-0.7 0-1-1-1-3C1 10.7 3.1 1 7 1c1.2 0 1.7 0.4 2.4 0.8C10.2 2.4 11.2 3 13 3 c1.8 0 2.8-0.6 3.6-1.2C17.3 1.4 17.8 1 19 1 M19 0c-3 0-3 2-6 2s-3-2-6-2C2 0 0 11 0 12s0 4 2 4s5-5 7-5s4 0 4 0s2 0 4 0s5 5 7 5 s2-3 2-4S24 0 19 0L19 0z"/></g></g></svg>