<svg xmlns="http://www.w3.org/2000/svg" xmlns:xlink="http://www.w3.org/1999/xlink" version="1.1" x="0px" y="0px" width="21.3px" height="21.3px" viewBox="0 0 21.3 21.3" xml:space="preserve" class="style0"><style type="text/css">.style0{enable-background:	new 0 0 21.3 21.3;}</style><style type="text/css">.st0{fill:#FFFFFF;}.st1{fill:#1F1F1F;}.st2{fill:#2ECC71;}.st3{fill-rule:evenodd;clip-rule:evenodd;fill:#FFFFFF;}.st4{fill:#2D2D2D;}.st5{fill-rule:evenodd;clip-rule:evenodd;fill:#2D2D2D;}</style><g><g><path class="st0" d="M14.9 6.4c-1-1-2.6-1-3.5 0c-1 1-1 2.6 0 3.5c1 1 2.6 1 3.5 0C15.9 8.9 15.9 7.3 14.9 6.4z M12.1 9.2 c-0.6-0.6-0.6-1.5 0-2.1c0.6-0.6 1.5-0.6 2.1 0c0.6 0.6 0.6 1.5 0 2.1C13.6 9.8 12.7 9.8 12.1 9.2z"/></g><g><path class="st0" d="M15.3 13.6c0 0 1.5-1.2 2.1-1.9C20.9 8.1 21.3 0 21.3 0S13.2 0.4 9.6 3.9C9 4.6 7.7 6 7.7 6 C4 6 2.1 8 1.3 9.1c-1.1 1.5-1.5 3.4-1.1 4.6l0.3 0.8L1 13.9c0.8-0.8 1.8-0.8 2.4-0.7l1.3 1.3l-2.1 2.1l2.1 2.1l2.1-2.1l1.3 1.3 c0.1 0.6 0 1.7-0.7 2.4l-0.6 0.6l0.8 0.3c1.3 0.4 3.1 0 4.6-1.1C13.3 19.2 15.3 17.2 15.3 13.6z M1 12.7c0-0.8 0.3-1.9 1.1-3 C2.7 8.8 4.2 7.3 7 7.1c-1.5 2.1-2.7 4.1-3.3 5.2C3 12.2 2 12.1 1 12.7z M6.8 15.2l-0.7 0.7l-1.4 1.4L4 16.6l1.4-1.4l0.7-0.7 L9.6 11l0.7 0.7L6.8 15.2z M8.4 16.8l-0.9-0.9l4.2-4.2L9.6 9.5l-4.2 4.2l-0.9-0.9c0.8-1.6 3.1-5.6 5.8-8.3 c2.5-2.5 7.6-3.3 9.9-3.5c-0.2 2.3-1 7.4-3.5 9.9C14 13.7 9.9 16 8.4 16.8z M11.6 19.2c-1.1 0.8-2.2 1.1-3 1.1 c0.6-1 0.5-2 0.4-2.7c1.1-0.6 3.1-1.8 5.2-3.3C14 17.1 12.5 18.5 11.6 19.2z"/></g></g></svg>