<svg xmlns="http://www.w3.org/2000/svg" xmlns:xlink="http://www.w3.org/1999/xlink" version="1.1" x="0px" y="0px" width="20px" height="24px" viewBox="0 0 20 24" xml:space="preserve" class="style0"><style type="text/css">.style0{enable-background:	new 0 0 20 24;}</style><style type="text/css">.st0{fill:#FFFFFF;}.st1{fill:#373737;}.st2{fill:#1F1F1F;}.st3{fill:#2ECC71;}.st4{fill-rule:evenodd;clip-rule:evenodd;fill:#1F1F1F;}.st5{fill-rule:evenodd;clip-rule:evenodd;fill:#FFFFFF;}</style><g><g><path class="st1" d="M17 1v5H2V1H17 M17 0H2C1.4 0 1 0.4 1 1v5c0 0.6 0.4 1 1 1h15c0.6 0 1-0.4 1-1V1C18 0.4 17.6 0 17 0L17 0z"/></g><g><path class="st1" d="M10 17v6H9v-6H10 M10 16H9c-0.6 0-1 0.4-1 1v6c0 0.6 0.4 1 1 1h1c0.6 0 1-0.4 1-1v-6C11 16.4 10.6 16 10 16 L10 16z"/></g><g><path class="st1" d="M19 3h-1v1h1v4h-1h-4h-2h-1h-1C9.4 8 9 8.4 9 9v7c0 0.6 0.4 1 1 1v-1v-6V9h2h1h1h1h4c0.6 0 1-0.4 1-1V4 C20 3.4 19.6 3 19 3z"/></g><g><rect y="3" class="st1" width="1" height="1"/></g></g></svg>