<svg xmlns="http://www.w3.org/2000/svg" xmlns:xlink="http://www.w3.org/1999/xlink" version="1.1" x="0px" y="0px" width="26px" height="26px" viewBox="0 0 26 26" xml:space="preserve" class="style0"><style type="text/css">.style0{enable-background:	new 0 0 26 26;}</style><style type="text/css">.st0{fill:#FFFFFF;}.st1{fill:#373737;}.st2{fill:#1F1F1F;}.st3{fill:#2ECC71;}.st4{fill-rule:evenodd;clip-rule:evenodd;fill:#1F1F1F;}.st5{fill-rule:evenodd;clip-rule:evenodd;fill:#FFFFFF;}</style><g><g><path class="st1" d="M13 3L13 3c2.7 0 5.2 1 7.1 2.9c3.9 3.9 3.9 10.2 0 14.1C18.2 22 15.7 23 13 23c-2.7 0-5.2-1-7.1-2.9 C2 16.2 2 9.8 5.9 5.9C7.8 4 10.3 3 13 3 M13 2c-2.8 0-5.6 1.1-7.8 3.2c-4.3 4.3-4.3 11.3 0 15.6c2.1 2.1 5 3.2 7.8 3.2 c2.8 0 5.6-1.1 7.8-3.2c4.3-4.3 4.3-11.3 0-15.6C18.6 3.1 15.8 2 13 2L13 2z"/></g><g><path class="st1" d="M13 5L13 5c2.1 0 4.1 0.8 5.7 2.3c3.1 3.1 3.1 8.2 0 11.3C17.1 20.2 15.1 21 13 21c-2.1 0-4.1-0.8-5.7-2.3 c-3.1-3.1-3.1-8.2 0-11.3C8.9 5.8 10.9 5 13 5 M13 4c-2.3 0-4.6 0.9-6.4 2.6c-3.5 3.5-3.5 9.2 0 12.7C8.4 21.1 10.7 22 13 22 c2.3 0 4.6-0.9 6.4-2.6c3.5-3.5 3.5-9.2 0-12.7C17.6 4.9 15.3 4 13 4L13 4z"/></g><g><g><path class="st1" d="M9.2 2.7c0 0 0.1 0 0.1-0.1C9.3 2.6 9.3 2.7 9.2 2.7z"/></g><g><path class="st1" d="M2.4 10.3c0.1-0.3 0.2-0.7 0.3-1c-0.1 0-0.1-0.1-0.2-0.1c0.1 0 0.2 0 0.2 0c0 0 0 0 0 0.1 c0.1-0.3 0.3-0.7 0.4-1c0 0 0 0 0 0C2.6 8.1 0.9 8.1 0.9 8.1l-0.4 1C0.6 9.1 1.9 10.1 2.4 10.3C2.4 10.3 2.4 10.3 2.4 10.3z"/></g><g><path class="st1" d="M2 13C2 13 2 13 2 13c-0.1 0-0.1 0-0.2 0C1.9 13 1.9 13 2 13c0-0.4 0-0.7 0.1-1C1.5 12 0 12.5 0 12.5v1 c0 0 1.5 0.5 2.1 0.5C2 13.7 2 13.4 2 13z"/></g><g><path class="st1" d="M4.2 6.4c0.2-0.3 0.4-0.5 0.6-0.8c0 0-0.1-0.1-0.2-0.2c0.1 0.1 0.2 0.1 0.2 0.1c0 0 0 0 0 0 c0.2-0.2 0.5-0.5 0.7-0.7l0 0c-0.4-0.4-1.9-1-1.9-1L3 4.6C3 4.6 3.8 6.1 4.2 6.4L4.2 6.4z"/></g><g><path class="st1" d="M10.1 2.4c0.7-0.2 1.3-0.3 2.1-0.4l0-0.1c-0.1-0.5-0.9-2-0.9-2l-1 0.2C10.2 0.2 10 1.8 10.1 2.4L10.1 2.4z M11.1 1.9c0 0.1 0.1 0.2 0.1 0.2l0 0c0 0-0.1 0-0.1 0l0 0C11.1 2.1 11.1 2 11.1 1.9z"/></g><g><path class="st1" d="M21.3 5.8c0 0 0.1-0.1 0.2-0.1C21.5 5.8 21.4 5.8 21.3 5.8C21.4 5.9 21.4 5.9 21.3 5.8 c0.3 0.3 0.5 0.6 0.7 0.9l0 0l0 0c0.4-0.3 1.2-1.8 1.2-1.8l-0.7-0.8c0 0-1.5 0.6-1.9 1l0 0C20.9 5.3 21.1 5.6 21.3 5.8z"/></g><g><path class="st1" d="M23 8.5c0.3 0.6 0.5 1.3 0.7 2c0 0 0 0 0 0c0.5-0.2 1.8-1.2 1.8-1.2l-0.3-1C25.2 8.4 23.5 8.4 23 8.5L23 8.5 z M23.6 9.4c-0.1 0.1-0.1 0.1-0.2 0.1c0 0 0-0.1 0-0.1C23.5 9.5 23.5 9.4 23.6 9.4z"/></g><g><path class="st1" d="M19.3 4L19.3 4c0.3-0.5 0.6-2.1 0.6-2.1L19 1.4c0 0-1.2 1.1-1.5 1.6l0 0c0 0 0 0 0 0 C18.2 3.3 18.8 3.6 19.3 4z M18.6 3.2c0 0.1-0.1 0.2-0.1 0.3c0 0 0 0-0.1 0C18.5 3.4 18.5 3.3 18.6 3.2z"/></g><g><path class="st1" d="M2.1 11.3c0-0.1 0-0.2 0-0.3C2.2 11.2 2.2 11.2 2.1 11.3z"/></g><g><path class="st1" d="M15.1 2.2L15.1 2.2c0-0.1 0-0.1 0.1-0.3C15.2 2.1 15.2 2.2 15.1 2.2L15.1 2.2c0.4 0.1 0.7 0.2 1 0.3l0 0 l0-0.1c0.1-0.5-0.1-2.2-0.1-2.2l-1-0.2c0 0-0.8 1.4-0.9 2l0 0.1C14.5 2.1 14.8 2.1 15.1 2.2z"/></g><g><path class="st1" d="M6.7 4C6.7 4 6.7 4 6.7 4C7 3.8 7.3 3.6 7.6 3.4c0-0.1-0.1-0.1-0.1-0.2c0.1 0.1 0.1 0.2 0.2 0.2 C7.9 3.2 8.2 3.1 8.5 3l0 0C8.2 2.5 7 1.3 7 1.3L6.1 1.9C6.1 1.9 6.4 3.5 6.7 4L6.7 4z"/></g><g><path class="st1" d="M23.4 16.7c0.1 0 0.1 0.1 0.2 0.1C23.5 16.8 23.4 16.8 23.4 16.7C23.3 16.8 23.3 16.7 23.4 16.7 c-0.1 0.4-0.3 0.7-0.4 1c0 0 0 0 0 0l0 0c0.5 0.2 2.1 0.2 2.1 0.2l0.3-1c0 0-1.3-1-1.8-1.2C23.6 16.1 23.5 16.4 23.4 16.7z"/></g><g><path class="st1" d="M21.8 19.6C21.8 19.6 21.8 19.6 21.8 19.6c-0.2 0.3-0.4 0.5-0.6 0.8c0 0 0 0 0 0c0 0 0.1 0.1 0.2 0.2 c-0.1-0.1-0.2-0.1-0.2-0.1c-0.2 0.2-0.5 0.5-0.7 0.7c0 0 0 0 0 0l0 0c0.4 0.3 1.9 1 1.9 1l0.7-0.8C23 21.4 22.2 19.9 21.8 19.6 L21.8 19.6z"/></g><g><path class="st1" d="M22.4 18.7C22.4 18.7 22.4 18.7 22.4 18.7C22.4 18.7 22.4 18.7 22.4 18.7z"/></g><g><path class="st1" d="M23.9 14.6c0 0.1 0 0.2 0 0.3C23.8 14.8 23.9 14.7 23.9 14.6z"/></g><g><path class="st1" d="M23.9 12c0 0.3 0 0.7 0.1 1c0.1 0 0.1 0 0.2 0c-0.1 0-0.2 0-0.2 0c0 0 0 0 0 0c0 0.4 0 0.7-0.1 1.1 c0 0 0 0 0 0c0.5 0 2.1-0.5 2.1-0.5v-1C26 12.5 24.5 12 23.9 12z"/></g><g><path class="st1" d="M23.9 11.5c0-0.2 0-0.3-0.1-0.5C23.8 11.2 23.9 11.4 23.9 11.5z"/></g><g><path class="st1" d="M19.3 22L19.3 22c-0.3 0.2-0.6 0.4-0.9 0.5c0 0 0 0 0 0c0 0 0.1 0.1 0.1 0.3c-0.1-0.1-0.1-0.2-0.2-0.2l0 0 c-0.3 0.2-0.6 0.3-0.9 0.4l0 0.1c0.3 0.5 1.5 1.6 1.5 1.6l0.9-0.5C19.9 24.1 19.6 22.5 19.3 22L19.3 22z"/></g><g><path class="st1" d="M15.9 23.6C15.9 23.6 15.9 23.6 15.9 23.6c-0.3 0.1-0.6 0.2-1 0.2l0 0c0 0.1 0 0.1 0 0.3 c0-0.1-0.1-0.2-0.1-0.2l0 0C14.2 23.9 13.6 24 13 24c0.3 0 0.6 0 0.9 0l0 0.1c0.1 0.5 0.9 2 0.9 2l1-0.2 C15.8 25.8 16 24.2 15.9 23.6L15.9 23.6z"/></g><g><path class="st1" d="M16.6 23.4c0 0 0.1 0 0.1-0.1C16.7 23.3 16.7 23.4 16.6 23.4z"/></g><g><path class="st1" d="M7.6 22.6L7.6 22.6c0 0.1-0.1 0.1-0.2 0.2C7.5 22.7 7.5 22.6 7.6 22.6c-0.4-0.2-0.6-0.4-0.9-0.6c0 0 0 0 0 0 l0 0c-0.3 0.5-0.6 2.1-0.6 2.1L7 24.6c0 0 1.2-1.1 1.5-1.6l0-0.1c0 0 0 0 0 0C8.2 22.9 7.9 22.7 7.6 22.6z"/></g><g><path class="st1" d="M2.2 14.9c0-0.1 0-0.3-0.1-0.4C2.1 14.6 2.1 14.8 2.2 14.9z"/></g><g><path class="st1" d="M4.7 20.2c0 0-0.1 0.1-0.2 0.1C4.5 20.2 4.6 20.2 4.7 20.2C4.6 20.1 4.7 20.2 4.7 20.2 c-0.3-0.3-0.5-0.6-0.7-0.9c0 0 0 0 0 0l0 0c-0.4 0.3-1.2 1.8-1.2 1.8l0.7 0.8c0 0 1.5-0.6 1.9-1l0 0C5.1 20.7 4.9 20.4 4.7 20.2z "/></g><g><path class="st1" d="M2.6 16.6c-0.1 0-0.1 0-0.2 0C2.5 16.5 2.5 16.5 2.6 16.6C2.6 16.5 2.6 16.5 2.6 16.6 c-0.1-0.4-0.2-0.7-0.3-1v0c-0.5 0.2-1.8 1.2-1.8 1.2l0.3 1c0 0 1.6 0 2.1-0.2C2.8 17.2 2.7 16.9 2.6 16.6z"/></g><g><path class="st1" d="M10.9 23.8L10.9 23.8c0 0.1 0 0.2-0.1 0.3C10.8 23.9 10.8 23.8 10.9 23.8L10.9 23.8 C10.8 23.8 10.8 23.8 10.9 23.8c-0.4-0.1-0.7-0.2-1-0.3l0 0l0 0.1c-0.1 0.5 0.1 2.2 0.1 2.2l1 0.2c0 0 0.8-1.4 0.9-2l0-0.1l0 0 C11.5 23.9 11.2 23.9 10.9 23.8z"/></g></g><g><rect x="6.2" y="9.7" transform="matrix(0.7071 0.7071 -0.7071 0.7071 10.1714 -4.2131)" class="st1" width="8" height="1"/></g><g><rect x="16.4" y="7.9" transform="matrix(0.2626 0.9649 -0.9649 0.2626 23.9745 -7.4922)" class="st1" width="1" height="8.1"/></g><g><rect x="11.4" y="12.9" transform="matrix(0.9646 0.2637 -0.2637 0.9646 4.8753 -2.5503)" class="st1" width="1" height="8.1"/></g></g></svg>