<svg xmlns="http://www.w3.org/2000/svg" xmlns:xlink="http://www.w3.org/1999/xlink" version="1.1" x="0px" y="0px" width="29px" height="20px" viewBox="0 0 29 20" xml:space="preserve" class="style0"><style>.style0{enable-background:	new 0 0 29 20;}</style><style type="text/css">.st0{fill:#FFFFFF;}.st1{fill:#1F1F1F;}.st2{fill:#2ECC71;}.st3{fill-rule:evenodd;clip-rule:evenodd;fill:#1F1F1F;}.st4{fill-rule:evenodd;clip-rule:evenodd;fill:#FFFFFF;}.st5{fill:#373737;}</style><g><g><path class="st5" d="M15.8 1C18.7 1 21 3.3 21 6.1c0 1.7-0.9 3.5-2.7 5.3L11 18.6l-7.3-7.3C1.9 9.5 1 7.7 1 6.1C1 3.3 3.3 1 6.1 1 c1.6 0 3.1 0.7 4.1 2L11 4l0.8-1C12.8 1.7 14.2 1 15.8 1 M15.8 0c-1.9 0-3.7 0.9-4.9 2.4C9.8 0.9 8.1 0 6.1 0C2.8 0 0 2.8 0 6.1 C0 8 1 10 3 12l8 8l8-7.8c2.1-2.1 3-4.2 3-6C22 2.8 19.2 0 15.8 0L15.8 0z"/></g><g><g><path class="st5" d="M24 3.7c-0.5 0-0.9 0.1-1.4 0.2c0.1 0.3 0.2 0.6 0.2 1c0.4-0.1 0.7-0.2 1.1-0.2c2.2 0 4 1.8 4 4 c0 1.3-0.7 2.8-2.1 4.2l-5.8 5.7L17 15.5l-0.7 0.7l3.8 3.8l6.5-6.4c1.7-1.7 2.4-3.4 2.4-4.9C29 6 26.8 3.7 24 3.7z"/></g></g></g></svg>