<svg xmlns="http://www.w3.org/2000/svg" xmlns:xlink="http://www.w3.org/1999/xlink" version="1.1" x="0px" y="0px" width="22px" height="23px" viewBox="0 0 22 23" xml:space="preserve" class="style0"><style type="text/css">.style0{enable-background:	new 0 0 22 23;}</style><style type="text/css">.st0{fill:#FFFFFF;}.st1{fill:#1F1F1F;}.st2{fill:#2ECC71;}.st3{fill-rule:evenodd;clip-rule:evenodd;fill:#1F1F1F;}.st4{fill-rule:evenodd;clip-rule:evenodd;fill:#FFFFFF;}</style><g><g><g><path class="st0" d="M21.7 9.1c-0.2-0.1-0.4-0.1-0.5 0l-4 1.9c-0.2 0.2-0.3 0.5-0.1 0.7c0.2 0.2 0.5 0.3 0.7 0.1l3.2-1.4v8.8 l-7.5 2.7l-6.3-3.4c-0.1-0.1-0.3-0.1-0.5 0L1 21.2v-8.9L4 11c0.2-0.2 0.3-0.5 0.1-0.7C4 10.1 3.7 10 3.4 10.2l-3.2 1.4 C0.1 11.7 0 11.8 0 12v10c0 0.2 0.1 0.3 0.2 0.4c0.2 0.1 0.3 0.1 0.5 0L7 19.6l6.3 3.4c0.1 0 0.2 0.1 0.2 0.1 c0.1 0 0.2 0 0.2-0.1l8-3c0.2-0.1 0.3-0.3 0.3-0.4v-10C22 9.3 21.9 9.2 21.7 9.1z"/></g></g><g><path class="st0" d="M11 1c2.8 0 5 2.2 5 5c0 3.6-3.8 9.6-5 11.3C9.8 15.6 6 9.6 6 6C6 3.2 8.2 1 11 1 M11 0C7.7 0 5 2.7 5 6 c0 4.5 5.4 12.2 5.6 12.4c0.1 0.1 0.3 0.2 0.4 0.2c0.1 0 0.3-0.1 0.4-0.2C11.6 18.2 17 10.5 17 6C17 2.7 14.3 0 11 0L11 0z"/></g><g><path class="st0" d="M11 5c0.6 0 1 0.4 1 1s-0.4 1-1 1c-0.6 0-1-0.4-1-1S10.4 5 11 5 M11 4C9.9 4 9 4.9 9 6s0.9 2 2 2 c1.1 0 2-0.9 2-2S12.1 4 11 4L11 4z"/></g></g></svg>