<svg xmlns="http://www.w3.org/2000/svg" xmlns:xlink="http://www.w3.org/1999/xlink" version="1.1" x="0px" y="0px" width="22px" height="23.4px" viewBox="0 0 22 23.4" xml:space="preserve" class="style0"><style type="text/css">.style0{enable-background:	new 0 0 22 23.4;}</style><style type="text/css">.st0{fill:#FFFFFF;}.st1{fill:#1F1F1F;}.st2{fill:#2ECC71;}.st3{fill-rule:evenodd;clip-rule:evenodd;fill:#1F1F1F;}.st4{fill-rule:evenodd;clip-rule:evenodd;fill:#FFFFFF;}</style><g><circle class="st0" cx="11.4" cy="6" r="1"/><path class="st0" d="M11.4 0c-3.3 0-6 2.7-6 6c0 4.5 5.4 12.2 5.6 12.4c0.1 0.1 0.3 0.2 0.4 0.2c0.1 0 0.3-0.1 0.4-0.2 c0.2-0.2 5.6-7.8 5.6-12.4C17.4 2.7 14.7 0 11.4 0z M11.4 8c-1.1 0-2-0.9-2-2s0.9-2 2-2s2 0.9 2 2S12.5 8 11.4 8z"/><path class="st0" d="M21.5 9.5l-4.3 1.6c-0.1 0-0.2 0.1-0.3 0.2c-1.7 3.8-4.2 7.5-4.6 7.8c-0.3 0.2-0.7 0.4-1.1 0.4 s-0.8-0.1-1.1-0.4C10 18.9 6.8 14.3 5.3 10C5.2 9.9 5 9.8 4.9 9.9l-4.7 2.2C0.1 12.1 0 12.3 0 12.4v10.2c0 0.3 0.3 0.4 0.5 0.3 l6-2.7c0.2-0.1 0.4-0.1 0.6 0l6 3.2c0.1 0 0.1 0.1 0.2 0.1c0.1 0 0.1 0 0.2-0.1l8.1-3c0.2-0.1 0.4-0.3 0.4-0.4V9.8 C22 9.6 21.8 9.4 21.5 9.5z"/></g></svg>