<svg xmlns="http://www.w3.org/2000/svg" xmlns:xlink="http://www.w3.org/1999/xlink" version="1.1" x="0px" y="0px" width="25px" height="25px" viewBox="0 0 25 25" xml:space="preserve" class="style0"><style type="text/css">.style0{enable-background:	new 0 0 25 25;}</style><style type="text/css">.st0{fill:#FFFFFF;}.st1{fill:#1F1F1F;}.st2{fill:#2ECC71;}.st3{fill-rule:evenodd;clip-rule:evenodd;fill:#1F1F1F;}.st4{fill-rule:evenodd;clip-rule:evenodd;fill:#FFFFFF;}</style><g><g><g><path class="st0" d="M12.5 1C18.8 1 24 6.2 24 12.5S18.8 24 12.5 24C6.2 24 1 18.8 1 12.5S6.2 1 12.5 1 M12.5 0 C5.6 0 0 5.6 0 12.5S5.6 25 12.5 25C19.4 25 25 19.4 25 12.5S19.4 0 12.5 0L12.5 0z"/></g></g><g><g><rect x="4" y="12" class="st0" width="17" height="1"/></g></g><g><g><rect x="4" y="12" class="st0" width="17" height="1"/></g></g><g><g><rect x="12" y="4" class="st0" width="1" height="17"/></g></g></g></svg>