<svg xmlns="http://www.w3.org/2000/svg" xmlns:xlink="http://www.w3.org/1999/xlink" version="1.1" x="0px" y="0px" width="26px" height="15.9px" viewBox="0 0 26 15.9" xml:space="preserve" class="style0"><style type="text/css">.style0{enable-background:	new 0 0 26 15.9;}</style><style type="text/css">.st0{fill:#FFFFFF;}.st1{fill:#1F1F1F;}.st2{fill:#2ECC71;}.st3{fill-rule:evenodd;clip-rule:evenodd;fill:#1F1F1F;}.st4{fill-rule:evenodd;clip-rule:evenodd;fill:#FFFFFF;}</style><g><circle class="st0" cx="18.5" cy="6.5" r="1.5"/><path class="st0" d="M19 0c-3 0-3 2-6 2s-3-2-6-2C2 0 0 11 0 12s0 4 2 4s5-5 7-5s4 0 4 0s2 0 4 0s5 5 7 5s2-3 2-4S24 0 19 0z M8.7 7h-2v2h-1V7h-2V6h2V4h1v2h2V7z M18.5 9C17.1 9 16 7.9 16 6.5C16 5.1 17.1 4 18.5 4C19.9 4 21 5.1 21 6.5 C21 7.9 19.9 9 18.5 9z"/></g></svg>