<svg xmlns="http://www.w3.org/2000/svg" xmlns:xlink="http://www.w3.org/1999/xlink" version="1.1" x="0px" y="0px" width="21.3px" height="21.3px" viewBox="0 0 21.3 21.3" xml:space="preserve" class="style0"><style type="text/css">.style0{enable-background:	new 0 0 21.3 21.3;}</style><style type="text/css">.st0{fill:#FFFFFF;}.st1{fill:#1F1F1F;}.st2{fill:#2ECC71;}.st3{fill-rule:evenodd;clip-rule:evenodd;fill:#1F1F1F;}.st4{fill-rule:evenodd;clip-rule:evenodd;fill:#FFFFFF;}</style><g><circle class="st0" cx="13.2" cy="8.1" r="1.5"/><path class="st0" d="M9.6 3.9C9 4.6 7.7 6 7.7 6C4 6 2.1 8 1.3 9.1c-1.1 1.5-1.5 3.4-1.1 4.6l0.3 0.8L1 13.9 c0.8-0.8 1.8-0.8 2.4-0.7l1.3 1.3l-2.1 2.1l2.1 2.1l2.1-2.1l1.3 1.3c0.1 0.6 0 1.7-0.7 2.4l-0.6 0.6l0.8 0.3c1.3 0.4 3.1 0 4.6-1.1 c1.2-0.8 3.1-2.8 3.1-6.4c0 0 1.5-1.2 2.1-1.9C20.9 8.1 21.3 0 21.3 0S13.2 0.4 9.6 3.9z M6.8 15.2l-0.7 0.7l-1.4 1.4L4 16.6 l1.4-1.4l0.7-0.7L9.6 11l0.7 0.7L6.8 15.2z M14.9 9.9c-1 1-2.6 1-3.5 0c-1-1-1-2.6 0-3.5c1-1 2.6-1 3.5 0 C15.9 7.3 15.9 8.9 14.9 9.9z"/></g></svg>